<?xml version="1.0" encoding="iso-8859-1"?>
<!-- Generator: Adobe Illustrator 18.0.0, SVG Export Plug-In . SVG Version: 6.00 Build 0)  -->
<!DOCTYPE svg PUBLIC "-//W3C//DTD SVG 1.1//EN" "http://www.w3.org/Graphics/SVG/1.1/DTD/svg11.dtd">
<svg version="1.1" id="Capa_1" xmlns="http://www.w3.org/2000/svg" xmlns:xlink="http://www.w3.org/1999/xlink" x="0px" y="0px"
	 viewBox="0 0 58 58" style="enable-background:new 0 0 58 58;" xml:space="preserve">
<path style="fill:#61B872;" d="M34.212,19.841C31.732,19.245,30,17.049,30,14.5c0-2.157,1.274-4.124,3.245-5.012l0.753-0.34
	l-0.191-0.804C32.526,2.964,30.464,0,28,0c-4.547,0-7,10.047-7,19.5l0.016,1.444l0.88,0.1C23.666,21.246,25,22.731,25,24.5
	c0,1.534-0.996,2.87-2.478,3.325l-0.855,0.263l0.166,0.879C23.037,35.343,25.284,39,28,39c4.51,0,6.778-9.415,6.978-18.164
	l0.019-0.807L34.212,19.841z"/>
<path style="fill:#43B05C;" d="M35.5,7c-4.136,0-7.5,3.364-7.5,7.5s3.364,7.5,7.5,7.5s7.5-3.364,7.5-7.5S39.636,7,35.5,7z"/>
<path style="fill:#88C057;" d="M21.5,19c-3.033,0-5.5,2.468-5.5,5.5s2.467,5.5,5.5,5.5s5.5-2.468,5.5-5.5S24.533,19,21.5,19z"/>
<line style="fill:none;stroke:#3D6F44;stroke-width:2;stroke-linecap:round;stroke-miterlimit:10;" x1="25" y1="12" x2="20" y2="7"/>
<line style="fill:none;stroke:#3D6F44;stroke-width:2;stroke-linecap:round;stroke-miterlimit:10;" x1="29" y1="6" x2="34" y2="1"/>
<line style="fill:none;stroke:#3D6F44;stroke-width:2;stroke-linecap:round;stroke-miterlimit:10;" x1="35" y1="10" x2="35" y2="5"/>
<line style="fill:none;stroke:#3D6F44;stroke-width:2;stroke-linecap:round;stroke-miterlimit:10;" x1="31" y1="28" x2="37" y2="28"/>
<line style="fill:none;stroke:#3D6F44;stroke-width:2;stroke-linecap:round;stroke-miterlimit:10;" x1="27" y1="33" x2="20" y2="33"/>
<line style="fill:none;stroke:#3D6F44;stroke-width:2;stroke-linecap:round;stroke-miterlimit:10;" x1="39" y1="12" x2="43" y2="8"/>
<line style="fill:none;stroke:#3D6F44;stroke-width:2;stroke-linecap:round;stroke-miterlimit:10;" x1="39" y1="17" x2="42.536" y2="20.536"/>
<line style="fill:none;stroke:#3D6F44;stroke-width:2;stroke-linecap:round;stroke-miterlimit:10;" x1="26" y1="16" x2="32" y2="16"/>
<line style="fill:none;stroke:#3D6F44;stroke-width:2;stroke-linecap:round;stroke-miterlimit:10;" x1="20" y1="24" x2="15" y2="19"/>
<rect x="16" y="38" style="fill:#6B4842;" width="24" height="6"/>
<polygon style="fill:#9E6C53;" points="33.385,58 22.615,58 18,44 38,44 "/>
<path style="fill:#CE9982;" d="M29,48h-6c-0.552,0-1-0.447-1-1s0.448-1,1-1h6c0.552,0,1,0.447,1,1S29.552,48,29,48z"/>
<path style="fill:#CE9982;" d="M32,48c-0.26,0-0.52-0.11-0.71-0.29C31.11,47.52,31,47.26,31,47c0-0.271,0.11-0.53,0.3-0.71
	c0.36-0.36,1.04-0.37,1.41,0C32.89,46.47,33,46.729,33,47c0,0.26-0.11,0.52-0.29,0.71C32.52,47.89,32.26,48,32,48z"/>
<path style="fill:#CE9982;" d="M28,51h-2c-0.552,0-1-0.447-1-1s0.448-1,1-1h2c0.552,0,1,0.447,1,1S28.552,51,28,51z"/>
<path style="fill:#CE9982;" d="M23,51c-0.26,0-0.52-0.11-0.71-0.29C22.11,50.52,22,50.26,22,50s0.11-0.521,0.29-0.71
	c0.38-0.37,1.05-0.37,1.42,0C23.89,49.479,24,49.74,24,50s-0.11,0.52-0.29,0.71C23.52,50.89,23.26,51,23,51z"/>
<g>
</g>
<g>
</g>
<g>
</g>
<g>
</g>
<g>
</g>
<g>
</g>
<g>
</g>
<g>
</g>
<g>
</g>
<g>
</g>
<g>
</g>
<g>
</g>
<g>
</g>
<g>
</g>
<g>
</g>
</svg>
